# xmcd
#
# Track frame offsets: 
#        150
#        18617
#        36403
#        54172
#        71878
#        79481
#        97485
#        109606
#        124861
#        141153
#        157938
#        174098
#        198033
#        215128
#
# Disc length: 3396 seconds
#
# Revision: 4
# Processed by: cddbd v1.5.2PL0 Copyright (c) Steve Scherf et al.
# Submitted via: ExactAudioCopyFreeDBPlugin 1.0
#
DISCID=ca0d420e
DTITLE=K.I.Z. - Böhse Enkelz
DYEAR=2006
DGENRE=Rap
TTITLE0=Intro
TTITLE1=Freiwild
TTITLE2=Hurensohn RMX
TTITLE3=Wir werden jetzt Stars
TTITLE4=Bong verkippt
TTITLE5=This Way RMX feat. Tua
TTITLE6=Riesenglied
TTITLE7=Was willst du machen?!
TTITLE8=Los geht's
TTITLE9=Frei sein RMX
TTITLE10=17 Jahr blondes Haar feat. Mad Milian (Bionic Sounds)
TTITLE11=Mach sie sagen feat. Kuba, Atek (88 Crew) and Massimo
TTITLE12=Wie ein Truthahn
TTITLE13=Outro
EXTD=
EXTT0=
EXTT1=
EXTT2=
EXTT3=
EXTT4=
EXTT5=
EXTT6=
EXTT7=
EXTT8=
EXTT9=
EXTT10=
EXTT11=
EXTT12=
EXTT13=
PLAYORDER=
